<svg xmlns="http://www.w3.org/2000/svg" width="155" height="161" viewBox="0 0 155 161" fill="none">
<path d="M64.3207 19.9568C85.3467 30.0124 99.8041 40.0652 110.467 52.8491C121.13 65.6324 128.063 81.2235 133.91 102.469C135.222 107.237 134.518 112.36 131.833 116.477C127.537 123.064 123.544 127.862 119.151 131.542C114.766 135.215 109.944 137.807 103.955 139.931C100.105 141.297 95.835 141.003 92.0183 139.383C69.9786 130.024 54.8906 120.384 44.0255 107.49C33.1621 94.5976 26.4429 78.3593 21.3158 55.655C20.3226 51.2571 21.0113 46.6212 23.3688 42.8139C27.0006 36.9489 30.554 32.3863 34.8695 28.6338C39.1816 24.8843 44.295 21.9088 51.085 19.2711C55.3444 17.6165 60.1477 17.9611 64.3207 19.9568Z" stroke="white" stroke-width="2"/>
<path d="M105.205 79.277C104.553 79.8237 103.631 80.1 102.412 80.0278C101.186 79.9551 99.7214 79.5297 98.1028 78.7439C94.868 77.1733 91.1927 74.2462 87.8891 70.3091C84.5855 66.3721 82.3411 62.2443 81.3561 58.7859C80.8632 57.0555 80.6988 55.5388 80.84 54.3189C80.9805 53.1064 81.4127 52.2461 82.0642 51.6994C82.7157 51.1528 83.638 50.8764 84.8565 50.9487C86.0823 51.0214 87.5475 51.4467 89.166 52.2326C92.4008 53.8031 96.0761 56.7302 99.3797 60.6673C102.683 64.6044 104.928 68.7322 105.913 72.1906C106.406 73.921 106.57 75.4377 106.429 76.6575C106.288 77.8701 105.856 78.7304 105.205 79.277Z" stroke="white" stroke-width="2"/>
<path d="M55.2567 37.6422C54.2738 38.4669 53.1882 38.2885 52.7604 37.7787C52.3327 37.269 52.3455 36.1688 53.3283 35.3441C54.3112 34.5194 55.3969 34.6978 55.8246 35.2076C56.2523 35.7174 56.2395 36.8175 55.2567 37.6422Z" stroke="white" stroke-width="2"/>
<path d="M119.632 105.028C118.649 105.852 117.564 105.674 117.136 105.164C116.708 104.654 116.721 103.554 117.704 102.73C118.687 101.905 119.772 102.083 120.2 102.593C120.628 103.103 120.615 104.203 119.632 105.028Z" stroke="white" stroke-width="2"/>
<path d="M79.5766 35.5111C78.5937 36.3358 77.5081 36.1574 77.0803 35.6476C76.6526 35.1379 76.6654 34.0377 77.6482 33.213C78.6311 32.3883 79.7168 32.5667 80.1445 33.0765C80.5723 33.5863 80.5595 34.6864 79.5766 35.5111Z" stroke="white" stroke-width="2"/>
<path d="M113.618 68.3013C112.635 69.126 111.549 68.9475 111.122 68.4378C110.694 67.928 110.707 66.8278 111.689 66.0031C112.672 65.1784 113.758 65.3568 114.186 65.8666C114.613 66.3764 114.601 67.4765 113.618 68.3013Z" stroke="white" stroke-width="2"/>
<path d="M81.664 84.6705C80.6811 85.4952 79.5955 85.3167 79.1677 84.807C78.74 84.2972 78.7528 83.197 79.7356 82.3723C80.7185 81.5476 81.8041 81.726 82.2319 82.2358C82.6596 82.7456 82.6468 83.8457 81.664 84.6705Z" stroke="white" stroke-width="2"/>
<path d="M125.963 121.907C124.98 122.732 123.895 122.553 123.467 122.044C123.039 121.534 123.052 120.434 124.035 119.609C125.018 118.784 126.103 118.963 126.531 119.472C126.959 119.982 126.946 121.082 125.963 121.907Z" stroke="white" stroke-width="2"/>
<path d="M94.3527 126.24C93.3699 127.064 92.2842 126.886 91.8565 126.376C91.4287 125.866 91.4415 124.766 92.4244 123.942C93.4072 123.117 94.4929 123.295 94.9206 123.805C95.3484 124.315 95.3356 125.415 94.3527 126.24Z" stroke="white" stroke-width="2"/>
</svg>