<svg xmlns="http://www.w3.org/2000/svg" width="158" height="150" viewBox="0 0 158 150" fill="none">
<path d="M35.1065 111.189C45.3407 123.782 51.2867 127.976 62.1576 131.797C97.8083 115.263 115.386 100.274 143.521 65.9105C137.082 55.9361 132.736 50.3216 122.728 40.2341C127.108 30.4905 126.11 25.6469 120.079 17.7665C97.877 16.9463 85.9885 18.5106 69.5482 38.5472C57.5685 37.4969 52.2637 38.6514 52.3367 52.4848C30.8964 68.6134 22.217 79.4864 21.1874 106.797C20.5739 113.411 23.0227 114.857 28.8478 116.257L35.1065 111.189ZM35.1065 111.189C42.3947 111.459 45.2329 109.048 49.8126 103.755C55.0655 98.2096 55.3349 94.2804 54.1993 86.7776C55.56 77.1788 59.9391 75.338 69.8461 74.1071L84.2355 75.8802C89.7841 76.4852 90.9966 74.4801 92.0589 69.5449L99.575 50.0331" stroke="black" stroke-width="2"/>
<path d="M99.8383 50.3584C104.916 38.1332 108.156 38.5359 113.92 38.9549L125.651 40.6437" stroke="black" stroke-width="2"/>
<line x1="43.2318" y1="121.223" x2="130.854" y2="50.2682" stroke="black" stroke-width="2"/>
<line x1="52.9272" y1="126.797" x2="137.42" y2="58.3765" stroke="black" stroke-width="2"/>
</svg>